Coordinates
version=1
nRows=9
nColumns=63
inDegrees=yes

Units are S.I. units (second, meters, Newtons, ...)
If the header above contains a line with 'inDegrees', this indicates whether rotational values are in degrees (yes) or radians (no).

endheader
time	pelvis_tilt	pelvis_list	pelvis_rotation	pelvis_tx	pelvis_ty	pelvis_tz	hip_flexion_r	hip_adduction_r	hip_rotation_r	knee_angle_r	knee_angle_r_beta	ankle_angle_r	subtalar_angle_r	mtp_angle_r	hip_flexion_l	hip_adduction_l	hip_rotation_l	knee_angle_l	knee_angle_l_beta	ankle_angle_l	subtalar_angle_l	mtp_angle_l	L5_S1_Flex_Ext	L5_S1_Lat_Bending	L5_S1_axial_rotation	L4_L5_Flex_Ext	L4_L5_Lat_Bending	L4_L5_axial_rotation	L3_L4_Flex_Ext	L3_L4_Lat_Bending	L3_L4_axial_rotation	L2_L3_Flex_Ext	L2_L3_Lat_Bending	L2_L3_axial_rotation	L1_L2_Flex_Ext	L1_L2_Lat_Bending	L1_L2_axial_rotation	L1_T12_Flex_Ext	L1_T12_Lat_Bending	L1_T12_axial_rotation	Abs_r3	Abs_r2	Abs_r1	Abs_t1	Abs_t2	neck_flexion	neck_bending	neck_rotation	arm_flex_r	arm_add_r	arm_rot_r	elbow_flex_r	pro_sup_r	wrist_flex_r	wrist_dev_r	arm_flex_l	arm_add_l	arm_rot_l	elbow_flex_l	pro_sup_l	wrist_flex_l	wrist_dev_l
      5.03636364	     -4.48832235	     -3.81922425	     98.04434090	      0.04860790	      1.01142779	      0.33342128	    -10.33767722	     -3.46140445	     -7.29845049	     13.18581733	      0.23013593	     36.40699295	     11.58721695	      0.00000000	    -14.46553506	      2.01320694	     11.43486791	      0.28444517	      0.00496450	     30.06592362	    -11.89511021	      0.00000000	     -0.43994328	      0.12641089	      0.60897573	     -0.81701866	      0.16812649	      0.64703671	     -0.72278281	      0.30735544	      0.64703671	     -0.50281117	      0.30735544	      0.53285376	     -0.40853133	      0.25777709	      0.49479278	     -0.25138359	      0.19581047	      0.45673180	     -3.14247085	      1.42998529	      3.38694032	      0.00000000	      0.00000000	     20.53575016	     -3.59941885	     -0.08954889	      2.77988588	    -21.15203999	     91.88241829	      5.72591355	      2.10442735	     -1.34292529	    -12.94823153	      3.73387543	    -10.20430362	    177.15100161	      4.19194843	     13.70180988	    -11.83594628	     -3.34550736
      5.05454545	     -4.51547235	     -3.99901548	     98.20028312	      0.04806427	      1.01108774	      0.33520815	     -9.94415875	     -3.59083848	     -7.69425781	     13.61268459	      0.23758617	     36.52057925	     11.60205142	      0.00000000	    -14.17203142	      2.05794685	     11.57181382	      0.28207319	      0.00492311	     30.13094666	    -11.70876032	      0.00000000	     -0.45058937	      0.12482672	      0.56703189	     -0.83678952	      0.16601954	      0.60247138	     -0.74027328	      0.30350369	      0.60247138	     -0.51497859	      0.30350369	      0.49615290	     -0.41841729	      0.25454665	      0.46071341	     -0.25746677	      0.19335659	      0.42527392	     -3.21851482	      1.41206483	      3.15366127	      0.00000000	      0.00000000	     21.04166180	     -3.91804909	     -0.43708525	      2.29372821	    -20.64587811	     91.42280554	      6.23547684	      2.16398776	     -1.74584165	    -12.93900664	      3.88468035	    -10.00168321	    176.32422687	      3.99577281	     13.66650322	    -10.91065556	     -2.50261075
      5.07272727	     -4.45560611	     -4.22512210	     98.33829233	      0.04732761	      1.01065958	      0.33659228	     -9.55022884	     -3.73037810	     -8.84386061	     13.88168919	      0.24228118	     36.72765503	     12.69687674	      0.00000000	    -13.85402359	      2.03243350	     11.59491600	      0.27355419	      0.00477442	     30.21425549	    -11.42998959	      0.00000000	     -0.45171017	      0.13298298	      0.52772878	     -0.83887095	      0.17686736	      0.56071183	     -0.74211464	      0.32333481	      0.56071183	     -0.51625955	      0.32333481	      0.46176268	     -0.41945806	      0.27117889	      0.42877964	     -0.25810719	      0.20599063	      0.39579659	     -3.22652057	      1.50433004	      2.93506917	      0.00000000	      0.00000000	     21.77260823	     -4.11860386	     -0.70057676	      1.93514792	    -20.24779955	     92.20541386	      6.60123342	      2.46826457	     -2.21852036	    -11.91224628	      3.92814842	    -10.01558833	    169.83954395	      4.02964001	     16.43657976	     -9.83306157	     -2.49180768
      5.09090909	     -4.32950908	     -4.49150002	     98.40075834	      0.04665769	      1.01016452	      0.33768814	     -9.07377353	     -3.75542907	     -9.35488096	     14.07999563	      0.24574228	     36.86536280	     13.07651121	      0.00000000	    -13.49642218	      1.96835358	     11.19336290	      0.26648860	      0.00465110	     30.51373725	    -10.68310669	      0.00000000	     -0.44703565	      0.14977297	      0.50617836	     -0.83018991	      0.19919805	      0.53781451	     -0.73443487	      0.36415800	      0.53781451	     -0.51091705	      0.36415800	      0.44290607	     -0.41511731	      0.30541704	      0.41126992	     -0.25543617	      0.23199833	      0.37963377	     -3.19313097	      1.69426180	      2.81521221	      0.00000000	      0.00000000	     22.62271007	     -4.36360552	     -0.85784428	      1.79298381	    -19.76396877	     97.54202121	      6.05101854	      2.68572915	     -2.79645041	    -10.42956964	      4.01379560	    -10.03491456	    166.42512909	      4.00763973	     14.84776310	     -8.63166205	     -2.52634328
      5.10909091	     -4.11258726	     -4.69253061	     98.61304622	      0.04558196	      1.00979598	      0.33860199	     -8.70271857	     -3.64730338	     -9.94116342	     14.12694120	      0.24656164	     36.99888292	     13.40048181	      0.00000000	    -13.18808385	      1.78487019	     11.86260248	      0.25582757	      0.00446503	     30.63456313	    -11.30141552	      0.00000000	     -0.45086089	      0.18257192	      0.47202985	     -0.83729375	      0.24282066	      0.50153171	     -0.74071935	      0.44390537	      0.50153171	     -0.51528891	      0.44390537	      0.41302612	     -0.41866942	      0.37230066	      0.38352425	     -0.25762191	      0.28280391	      0.35402238	     -3.22045422	      2.06529009	      2.62528839	      0.00000000	      0.00000000	     23.46273184	     -4.57522903	     -0.80048632	      1.79053089	    -19.08572161	    112.12634328	      3.71309526	      2.71579217	     -3.60774758	     -8.55890668	      4.21338131	    -10.01964945	    162.70212828	      4.09678102	     14.62483315	     -8.09514374	     -2.68936118
      5.12727273	     -3.78882697	     -4.91664306	     98.61065950	      0.04450291	      1.00943377	      0.33946741	     -8.20026853	     -3.50075086	    -10.31348235	     14.25781412	      0.24884580	     37.22719212	     13.83029126	      0.00000000	    -12.84001283	      1.56526718	     11.15090604	      0.24966104	      0.00435741	     31.20180037	    -10.40352821	      0.00000000	     -0.44548434	      0.22945078	      0.47859457	     -0.82730897	      0.30516954	      0.50850673	     -0.73188622	      0.55788664	      0.50850673	     -0.50914405	      0.55788664	      0.41877025	     -0.41367676	      0.46789604	      0.38885809	     -0.25454975	      0.35541927	      0.35894593	     -3.18205008	      2.59559316	      2.66179943	      0.00000000	      0.00000000	     24.10814911	     -4.69472309	     -0.62176696	      1.77888470	    -18.93537994	    126.53183670	      2.04598475	      4.71324628	     -5.32172703	     -7.07414614	      4.43160023	     -9.98927829	    159.20849330	      4.39411281	     10.79252698	     -7.45102373	     -3.00263380
      5.14545455	     -3.34772234	     -5.11825360	     98.79942717	      0.04308252	      1.00918188	      0.34054602	     -7.74057782	     -3.19029652	    -10.73342248	     14.31639669	      0.24986826	     37.43280838	     14.17021558	      0.00000000	    -12.46805964	      1.20340043	     11.63866869	      0.24143550	      0.00421384	     31.51103399	    -11.00368611	      0.00000000	     -0.43867474	      0.29029438	      0.44054302	     -0.81466287	      0.38609153	      0.46807696	     -0.72069874	      0.70582175	      0.46807696	     -0.50136136	      0.70582175	      0.38547514	     -0.40735337	      0.59196830	      0.35794120	     -0.25065875	      0.44966599	      0.33040726	     -3.13340983	      3.28386808	      2.45016811	      0.00000000	      0.00000000	     24.51653804	     -4.67263856	     -0.42322041	      2.11768164	    -19.18073291	    138.62814916	      1.21779221	      8.80897646	     -7.18276048	     -5.61526820	      4.68689180	     -9.98595058	    152.96491222	      5.00022228	      9.71666076	     -7.59442299	     -3.38053357
      5.16363636	     -3.01786212	     -5.30848296	     98.81489872	      0.04229949	      1.00896246	      0.34157131	     -7.26122097	     -2.98110010	    -10.80213662	     14.47100894	      0.25256675	     37.70701394	     14.33617056	      0.00000000	    -12.12133219	      0.95747513	     11.33913950	      0.23593721	      0.00411788	     31.96062494	    -10.74442844	      0.00000000	     -0.43353071	      0.33399156	      0.43851037	     -0.80510987	      0.44420878	      0.46591727	     -0.71224760	      0.81206709	      0.46591727	     -0.49548224	      0.81206709	      0.38369657	     -0.40257661	      0.68107560	      0.35628968	     -0.24771945	      0.51735293	      0.32888278	     -3.09666648	      3.77817937	      2.43886312	      0.00000000	      0.00000000	     24.74133016	     -4.50856751	     -0.29336150	      2.53144858	    -19.34445568	    144.86665575	      0.95263016	     15.94119539	     -9.17379746	     -4.54328827	      5.08365112	    -10.04734551	    149.29809883	      5.57274213	      7.82655403	     -8.30702167	     -3.86075014
      5.18181818	     -2.69726968	     -5.50594316	     98.83739513	      0.04202644	      1.00860973	      0.34220431	     -6.85359366	     -2.69313281	    -10.58041157	     14.55409739	      0.25401692	     37.90105101	     14.16335611	      0.00000000	    -11.79341207	      0.68848129	     11.03711218	      0.23083424	      0.00402882	     32.42694904	    -10.46704333	      0.00000000	     -0.41913070	      0.36983493	      0.45307118	     -0.77836763	      0.49188046	      0.48138813	     -0.68858983	      0.89921665	      0.48138813	     -0.47902448	      0.89921665	      0.39643728	     -0.38920477	      0.75416739	      0.36812033	     -0.23949128	      0.57287431	      0.33980338	     -2.99380869	      4.18364671	      2.51984597	      0.00000000	      0.00000000	     24.80166382	     -4.22771145	     -0.27666926	      2.56951986	    -19.39808375	    145.40720587	      0.90661718	     17.34448217	     -9.07118807	     -4.17410148	      5.68052415	    -10.07001069	    149.64767343	      5.75442675	      8.91126300	    -10.19001831	     -4.26382072
